# xmcd CD database file
#
# Track frame offsets:
#	150
#	11935
#	26074
#	38792
#	51098
#	64356
#	77530
#	89375
#	100916
#	113477
#	124800
#	136044
#	147897
#	160325
#	170884
#	182891
#	194898
#	206122
#	217587
#	228955
#	242721
#	255246
#	268039
#	281834
#	291745
#	300532
#	310022
#
# Disc length: 4270 seconds
#
# Revision: 0
# Processed by: cddbd v1.5.2PL0 Copyright (c) Steve Scherf et al.
# Submitted via: CDex 1.51
#
DISCID=9110ac1b
DTITLE=Lawton ''Slim'' Williams - Slim Pickings
DYEAR=1900
DGENRE=Country
TTITLE0=Lawton ''Slim'' Williams/Tennessee Avenue
TTITLE1=Lawton ''Slim'' Williams/Paper Face
TTITLE2=Lawton ''Slim'' Williams/Throwing Kisses
TTITLE3=Lawton ''Slim'' Williams/Reckon As How I Love You
TTITLE4=Lawton ''Slim'' Williams/Kentucky Highway
TTITLE5=Lawton ''Slim'' Williams/Alone At The Table For Two
TTITLE6=Lawton ''Slim'' Williams/Just A Minute Ago
TTITLE7=Lawton ''Slim'' Williams/Dying Before My Time
TTITLE8=Lawton ''Slim'' Williams/No Wonder
TTITLE9=Lawton ''Slim'' Williams/What Am I Supposed To Say
TTITLE10=Lawton ''Slim'' Williams/Half Way To Heaven
TTITLE11=Lawton ''Slim'' Williams/Everlasting Love
TTITLE12=Lawton ''Slim'' Williams/That's All You Gotta Do
TTITLE13=Lawton ''Slim'' Williams/Lovin' Overtime
TTITLE14=Lawton ''Slim'' Williams/Away
TTITLE15=Lawton ''Slim'' Williams/Dusting Off Your Love Letters
TTITLE16=Lawton ''Slim'' Williams/Out Running Around
TTITLE17=Lawton ''Slim'' Williams/Yoke Of Oxen
TTITLE18=Lawton ''Slim'' Williams/Once Before
TTITLE19=Lawton ''Slim'' Williams/Then You'll Know
TTITLE20=Lawton ''Slim'' Williams/Emergency Call
TTITLE21=Lawton ''Slim'' Williams/Have Mercy On Me
TTITLE22=Lawton ''Slim'' Williams/There's Only One Heaven
TTITLE23=Lawton ''Slim'' Williams/I Don't Care Who Knows
TTITLE24=Lawton ''Slim'' Williams/Satan's Bells
TTITLE25=Lawton ''Slim'' Williams/Mama Doll
TTITLE26=Lawton ''Slim'' Williams/Farewell Party
EXTD=
EXTT0=
EXTT1=
EXTT2=
EXTT3=
EXTT4=
EXTT5=
EXTT6=
EXTT7=
EXTT8=
EXTT9=
EXTT10=
EXTT11=
EXTT12=
EXTT13=
EXTT14=
EXTT15=
EXTT16=
EXTT17=
EXTT18=
EXTT19=
EXTT20=
EXTT21=
EXTT22=
EXTT23=
EXTT24=
EXTT25=
EXTT26=
PLAYORDER=
